<svg width="114" height="29" viewBox="0 0 114 29" fill="none" xmlns="http://www.w3.org/2000/svg">
<rect x="0.000488281" y="13.812" width="32" height="1.54334" rx="0.771672" fill="#E3B873"/>
<rect x="82.0005" y="13.812" width="32" height="1.54334" rx="0.771672" fill="#E3B873"/>
<path fill-rule="evenodd" clip-rule="evenodd" d="M49.7306 0.829306L73.8511 9.76553L73.8541 9.76378C73.9941 9.81553 74.1096 9.91804 74.1776 10.051C74.3276 10.3438 74.2119 10.7028 73.9191 10.8528L70.3077 12.7072C70.6057 13.3722 70.6932 14.1125 70.5584 14.8288C70.1939 16.7672 68.3268 18.043 66.3882 17.6782L66.1649 18.2865C66.0787 18.521 65.8552 18.6768 65.6054 18.6768C65.5354 18.6768 65.4662 18.6645 65.4004 18.6403L60.3671 16.7934L59.9561 17.9122C59.7476 18.4797 59.3293 18.9455 58.7878 19.214V25.8136C58.7878 26.8007 57.9875 27.601 57.0005 27.601C56.0134 27.601 55.2134 26.8007 55.2134 25.8136V25.2178H47.1974C46.8094 26.1051 46.0154 26.7489 45.0671 26.9457V28.1965C45.0671 28.5258 44.8006 28.7923 44.4713 28.7923H42.0694C41.7404 28.7923 41.4736 28.5258 41.4736 28.1965V18.6648C41.4736 18.3357 41.7404 18.069 42.0694 18.069H44.4713C44.8006 18.069 45.0671 18.3357 45.0671 18.6648V19.9158C46.0154 20.1123 46.8094 20.7564 47.1974 21.6434H55.2134V18.6032C54.3393 17.987 53.9908 16.8589 54.3643 15.8569L54.7753 14.738L49.1825 12.6847C48.8738 12.5712 48.7155 12.2292 48.8288 11.9204L49.4448 10.2421L46.6489 9.2155H46.6484C46.3396 9.102 46.1814 8.75948 46.2949 8.45071L48.965 1.18257L48.9655 1.18182C49.0793 0.873058 49.4221 0.7153 49.7306 0.829306ZM56.898 19.3248L56.4047 19.146V21.6434H57.5962V19.4618C57.358 19.4515 57.1225 19.4053 56.898 19.3248ZM42.6652 27.601H43.8758V19.2605H42.6652V27.601ZM45.0671 25.7119C45.7806 25.4584 46.2576 24.7836 46.2586 24.0265V22.835C46.2576 22.0777 45.7806 21.4029 45.0671 21.1496V25.7119ZM57.5962 22.835H47.4687V24.0265H57.5962V22.835ZM56.4047 25.8136C56.4047 26.1426 56.6714 26.4094 57.0005 26.4094C57.3295 26.4094 57.5962 26.1426 57.5962 25.8136V25.2178H56.4047V25.8136ZM58.8378 17.5019L59.2488 16.3831L58.9116 16.2596L55.8919 15.1511L55.4806 16.2691V16.2694C55.2539 16.8872 55.5709 17.5717 56.1884 17.7985L57.309 18.209C57.9265 18.4355 58.6108 18.119 58.8378 17.5019ZM50.1523 11.7736L65.2521 17.3184L66.4842 13.963L61.797 12.2414L60.1251 13.8152C59.9604 13.9693 59.7229 14.0175 59.5111 13.9405L50.5636 10.6548L50.1523 11.7736ZM66.807 16.5391C67.8873 16.6439 68.9026 16.0079 69.2801 14.9901C69.4839 14.4273 69.4664 13.8077 69.2311 13.2572L67.7275 14.0315L66.807 16.5391ZM67.1757 12.9467C67.2065 12.9384 67.2377 12.9329 67.2693 12.9302L72.1675 10.4126L49.8773 2.15438L47.6187 8.3042L52.1308 9.96115C52.1321 9.95735 52.1334 9.95355 52.1348 9.94976L52.6603 8.52984C52.7561 8.27086 53.0438 8.13861 53.3028 8.23445C53.5617 8.33029 53.694 8.61792 53.5981 8.8769L53.0727 10.2968C53.0716 10.2998 53.0704 10.3028 53.0693 10.3058L54.4203 10.8019C54.4217 10.7979 54.4231 10.7938 54.4246 10.7898L54.9501 9.36987C55.0459 9.11089 55.3335 8.97864 55.5925 9.07448C55.8515 9.17032 55.9837 9.45795 55.8879 9.71693L55.3624 11.1369C55.3612 11.1401 55.36 11.1433 55.3587 11.1465L56.6456 11.6191C56.6459 11.6182 56.6463 11.6172 56.6466 11.6163L57.1721 10.1963C57.2679 9.93737 57.5556 9.80512 57.8145 9.90096C58.0735 9.9968 58.2058 10.2844 58.1099 10.5434L57.5845 11.9633C57.5844 11.9635 57.5843 11.9637 57.5843 11.9638L59.5766 12.6954L61.2504 11.1214C61.4149 10.9668 61.6525 10.9186 61.8642 10.9963L67.1757 12.9467Z" fill="#E3B873"/>
</svg>
