<svg width="34" height="29" viewBox="0 0 34 29" fill="none" xmlns="http://www.w3.org/2000/svg">
<path fill-rule="evenodd" clip-rule="evenodd" d="M8.73057 0.829305L32.8511 9.76553L32.8541 9.76378C32.9941 9.81553 33.1096 9.91804 33.1776 10.051C33.3276 10.3438 33.2119 10.7028 32.9191 10.8528L29.3077 12.7072C29.6057 13.3722 29.6932 14.1125 29.5584 14.8288C29.1939 16.7672 27.3268 18.043 25.3882 17.6782L25.1649 18.2865C25.0787 18.521 24.8552 18.6768 24.6054 18.6768C24.5354 18.6768 24.4662 18.6645 24.4004 18.6402L19.3671 16.7934L18.9561 17.9122C18.7476 18.4797 18.3293 18.9455 17.7878 19.214V25.8136C17.7878 26.8007 16.9875 27.601 16.0005 27.601C15.0134 27.601 14.2134 26.8007 14.2134 25.8136V25.2178H6.19744C5.80942 26.1051 5.01537 26.7489 4.06707 26.9457V28.1965C4.06707 28.5258 3.80056 28.7923 3.47129 28.7923H1.06941C0.740397 28.7923 0.473633 28.5258 0.473633 28.1965V18.6648C0.473633 18.3357 0.740397 18.069 1.06941 18.069H3.47129C3.80056 18.069 4.06707 18.3357 4.06707 18.6648V19.9158C5.01537 20.1123 5.80942 20.7564 6.19744 21.6434H14.2134V18.6032C13.3393 17.987 12.9908 16.8589 13.3643 15.8569L13.7753 14.738L8.18254 12.6847C7.87378 12.5712 7.71552 12.2292 7.82877 11.9204L8.44481 10.2421L5.64891 9.2155H5.64841C5.33964 9.10199 5.18138 8.75948 5.29489 8.45071L7.96503 1.18257L7.96553 1.18182C8.07929 0.873057 8.42205 0.715299 8.73057 0.829305ZM15.898 19.3248L15.4047 19.146V21.6434H16.5962V19.4618C16.358 19.4515 16.1225 19.4053 15.898 19.3248ZM1.6652 27.601H2.87576V19.2605H1.6652V27.601ZM4.06707 25.7119C4.78061 25.4584 5.25764 24.7836 5.25864 24.0265V22.835C5.25764 22.0777 4.78061 21.4029 4.06707 21.1496V25.7119ZM16.5962 22.835H6.4687V24.0265H16.5962V22.835ZM15.4047 25.8136C15.4047 26.1426 15.6714 26.4094 16.0005 26.4094C16.3295 26.4094 16.5962 26.1426 16.5962 25.8136V25.2178H15.4047V25.8136ZM17.8378 17.5019L18.2488 16.3831L17.9116 16.2596L14.8919 15.1511L14.4806 16.2691V16.2694C14.2539 16.8872 14.5709 17.5717 15.1884 17.7985L16.309 18.209C16.9265 18.4355 17.6108 18.119 17.8378 17.5019ZM9.15234 11.7736L24.2521 17.3184L25.4842 13.963L20.797 12.2414L19.1251 13.8152C18.9604 13.9693 18.7229 14.0175 18.5111 13.9405L9.56361 10.6548L9.15234 11.7736ZM25.807 16.5391C26.8873 16.6439 27.9026 16.0079 28.2801 14.9901C28.4839 14.4273 28.4664 13.8077 28.2311 13.2572L26.7275 14.0315L25.807 16.5391ZM26.1757 12.9467C26.2065 12.9384 26.2377 12.9329 26.2693 12.9302L31.1675 10.4126L8.87733 2.15438L6.61871 8.3042L11.1308 9.96115C11.1321 9.95735 11.1334 9.95355 11.1348 9.94976L11.6603 8.52984C11.7561 8.27086 12.0438 8.13861 12.3028 8.23445C12.5617 8.33029 12.694 8.61792 12.5981 8.8769L12.0727 10.2968C12.0716 10.2998 12.0704 10.3028 12.0693 10.3058L13.4203 10.8019C13.4217 10.7979 13.4231 10.7938 13.4246 10.7898L13.9501 9.36987C14.0459 9.11089 14.3335 8.97864 14.5925 9.07448C14.8515 9.17032 14.9837 9.45795 14.8879 9.71693L14.3624 11.1369C14.3612 11.1401 14.36 11.1433 14.3587 11.1465L15.6456 11.6191C15.6459 11.6182 15.6463 11.6172 15.6466 11.6163L16.1721 10.1963C16.2679 9.93737 16.5556 9.80512 16.8145 9.90096C17.0735 9.9968 17.2058 10.2844 17.1099 10.5434L16.5845 11.9633C16.5844 11.9635 16.5843 11.9637 16.5843 11.9638L18.5766 12.6954L20.2504 11.1214C20.4149 10.9668 20.6525 10.9186 20.8642 10.9963L26.1757 12.9467Z" fill="#E3B873"/>
</svg>
